# xmcd
#
# Track frame offsets:
#  151
#  20210
#  44917
#  65925
#  89566
#  108926
#
# Disc length: 1726 seconds
#
# Revision: 0
# Processed by: cddbd v1.4PL0 Copyright (c) Steve Scherf et al.
# Submitted via: AltoMP3_Maker 3.0
#
DISCID=5c06bc06
DTITLE=Chakri - Anaganagaa O Kurradu
DYEAR=1900
DGENRE=
TTITLE0=Nene Nuvvani
TTITLE1=Cellphone Dwani
TTITLE2=Sakku Sakku
TTITLE3=Chinna Dresslo
TTITLE4=Vijayam Mana Sontham
TTITLE5=Kala Telavaarindhi
EXTD=
EXTT0=
EXTT1=
EXTT2=
EXTT3=
EXTT4=
EXTT5=
PLAYORDER=
